HIERARCHY
ROOT hip
{
  OFFSET 0 0 0
  CHANNELS 6 Xposition Yposition Zposition Zrotation Yrotation Xrotation
  JOINT abdomen
  {
    OFFSET 0 20.6881 -0.73152
    CHANNELS 3 Zrotation Xrotation Yrotation
    JOINT chest
    {
      OFFSET 0 11.7043 -0.48768
      CHANNELS 3 Zrotation Xrotation Yrotation
      JOINT neck
      {
        OFFSET 0 22.1894 -2.19456
        CHANNELS 3 Zrotation Xrotation Yrotation
        JOINT head
        {
          OFFSET -0.24384 7.07133 1.2192
          CHANNELS 3 Zrotation Xrotation Yrotation
          JOINT leftEye
          {
            OFFSET 4.14528 8.04674 8.04672
            CHANNELS 3 Zrotation Xrotation Yrotation
            End Site
            {
              OFFSET 1 0 0
            }
          }
          JOINT rightEye
          {
            OFFSET -3.6576 8.04674 8.04672
            CHANNELS 3 Zrotation Xrotation Yrotation
            End Site
            {
              OFFSET 1 0 0
            }
          }
        }
      }
      JOINT rCollar
      {
        OFFSET -2.68224 19.2634 -4.8768
        CHANNELS 3 Zrotation Xrotation Yrotation
        JOINT rShldr
        {
          OFFSET -8.77824 -1.95073 1.46304
          CHANNELS 3 Zrotation Xrotation Yrotation
          JOINT rForeArm
          {
            OFFSET -28.1742 -1.7115 0.48768
            CHANNELS 3 Zrotation Xrotation Yrotation
            JOINT rHand
            {
              OFFSET -22.5879 0.773209 7.07136
              CHANNELS 3 Zrotation Xrotation Yrotation
              JOINT rThumb1
              {
                OFFSET -1.2192 -0.487915 3.41376
                CHANNELS 3 Zrotation Xrotation Yrotation
                JOINT rThumb2
                {
                  OFFSET -3.37035 -0.52449 3.41376
                  CHANNELS 3 Zrotation Xrotation Yrotation
                  End Site
                  {
                    OFFSET -1.78271 -1.18214 1.43049
                  }
                }
              }
              JOINT rIndex1
              {
                OFFSET -7.75947 0.938293 5.60832
                CHANNELS 3 Zrotation Xrotation Yrotation
                JOINT rIndex2
                {
                  OFFSET -2.54057 -0.884171 1.56538
                  CHANNELS 3 Zrotation Xrotation Yrotation
                  End Site
                  {
                    OFFSET -1.62519 -0.234802 1.16502
                  }
                }
              }
              JOINT rMid1
              {
                OFFSET -8.24714 1.18213 3.41376
                CHANNELS 3 Zrotation Xrotation Yrotation
                JOINT rMid2
                {
                  OFFSET -3.10165 -0.590103 1.0647
                  CHANNELS 3 Zrotation Xrotation Yrotation
                  End Site
                  {
                    OFFSET -2.48547 -0.328903 0.83742
                  }
                }
              }
              JOINT rRing1
              {
                OFFSET -8.82822 0.546677 1.51678
                CHANNELS 3 Zrotation Xrotation Yrotation
                JOINT rRing2
                {
                  OFFSET -2.60934 -0.819778 -0.0198488
                  CHANNELS 3 Zrotation Xrotation Yrotation
                  End Site
                  {
                    OFFSET -2.33842 -0.294052 0.168128
                  }
                }
              }
              JOINT rPinky1
              {
                OFFSET -8.27202 -0.0477905 -0.4584
                CHANNELS 3 Zrotation Xrotation Yrotation
                JOINT rPinky2
                {
                  OFFSET -1.82734 -0.647385 -0.700984
                  CHANNELS 3 Zrotation Xrotation Yrotation
                  End Site
                  {
                    OFFSET -1.69225 -0.51767 -0.607171
                  }
                }
              }
            }
          }
        }
      }
      JOINT lCollar
      {
        OFFSET 2.68224 19.2634 -4.8768
        CHANNELS 3 Zrotation Xrotation Yrotation
        JOINT lShldr
        {
          OFFSET 8.77824 -1.95073 1.46304
          CHANNELS 3 Zrotation Xrotation Yrotation
          JOINT lForeArm
          {
            OFFSET 28.1742 -1.7115 0.48768
            CHANNELS 3 Zrotation Xrotation Yrotation
            JOINT lHand
            {
              OFFSET 22.5879 0.773209 7.07136
              CHANNELS 3 Zrotation Xrotation Yrotation
              JOINT lThumb1
              {
                OFFSET 1.2192 -0.487915 3.41376
                CHANNELS 3 Zrotation Xrotation Yrotation
                JOINT lThumb2
                {
                  OFFSET 3.37035 -0.52449 3.41376
                  CHANNELS 3 Zrotation Xrotation Yrotation
                  End Site
                  {
                    OFFSET 1.78271 -1.18214 1.43049
                  }
                }
              }
              JOINT lIndex1
              {
                OFFSET 7.75947 0.938293 5.60832
                CHANNELS 3 Zrotation Xrotation Yrotation
                JOINT lIndex2
                {
                  OFFSET 2.54057 -0.884171 1.56538
                  CHANNELS 3 Zrotation Xrotation Yrotation
                  End Site
                  {
                    OFFSET 1.62519 -0.234802 1.16502
                  }
                }
              }
              JOINT lMid1
              {
                OFFSET 8.24714 1.18213 3.41376
                CHANNELS 3 Zrotation Xrotation Yrotation
                JOINT lMid2
                {
                  OFFSET 3.10165 -0.590103 1.0647
                  CHANNELS 3 Zrotation Xrotation Yrotation
                  End Site
                  {
                    OFFSET 2.48547 -0.328903 0.83742
                  }
                }
              }
              JOINT lRing1
              {
                OFFSET 8.82822 0.546677 1.51678
                CHANNELS 3 Zrotation Xrotation Yrotation
                JOINT lRing2
                {
                  OFFSET 2.60934 -0.819778 -0.0198488
                  CHANNELS 3 Zrotation Xrotation Yrotation
                  End Site
                  {
                    OFFSET 2.33842 -0.294052 0.168128
                  }
                }
              }
              JOINT lPinky1
              {
                OFFSET 8.27202 -0.0477905 -0.4584
                CHANNELS 3 Zrotation Xrotation Yrotation
                JOINT lPinky2
                {
                  OFFSET 1.82734 -0.647385 -0.700984
                  CHANNELS 3 Zrotation Xrotation Yrotation
                  End Site
                  {
                    OFFSET 1.69225 -0.51767 -0.607171
                  }
                }
              }
            }
          }
        }
      }
    }
  }
  JOINT rButtock
  {
    OFFSET -8.77824 4.35084 1.2192
    CHANNELS 3 Zrotation Xrotation Yrotation
    JOINT rThigh
    {
      OFFSET 0 -1.70687 -2.19456
      CHANNELS 3 Zrotation Xrotation Yrotation
      JOINT rShin
      {
        OFFSET 0 -36.8199 0.73152
        CHANNELS 3 Zrotation Xrotation Yrotation
        JOINT rFoot
        {
          OFFSET 0.73152 -45.1104 -5.12064
          CHANNELS 3 Zrotation Xrotation Yrotation
          End Site
          {
            OFFSET -1.1221 -3.69964 12.103
          }
        }
      }
    }
  }
  JOINT lButtock
  {
    OFFSET 8.77824 4.35084 1.2192
    CHANNELS 3 Zrotation Xrotation Yrotation
    JOINT lThigh
    {
      OFFSET 0 -1.70687 -2.19456
      CHANNELS 3 Zrotation Xrotation Yrotation
      JOINT lShin
      {
        OFFSET 0 -36.8199 0.73152
        CHANNELS 3 Zrotation Xrotation Yrotation
        JOINT lFoot
        {
          OFFSET -0.73152 -45.1104 -5.12064
          CHANNELS 3 Zrotation Xrotation Yrotation
          End Site
          {
            OFFSET 1.1221 -3.69964 12.103
          }
        }
      }
    }
  }
}
MOTION
Frames:	4
Frame Time:	0.00833333
-95.7339 85.9575 -4.6556 158.454388 38.613836 168.098959 -12.713048 -0.200479 -90.128355 5.272284 -3.943544 88.697558 13.261686 36.324261 108.322435 -40.551312 38.441418 -160.424245 -0.002874 -0.0 0.000319 -0.002612 0.0 -0.000871 -6.043232 25.598813 7.236055 46.099417 3.956336 8.014121 25.112824 65.104361 -130.225349 -171.356868 7.764311 141.049601 -5.433623 5.264949 1.078033 -127.264347 -24.20688 111.59479 -151.353042 -17.15868 121.13257 -26.095503 47.062284 14.224918 -10.976448 25.789693 7.640552 -153.980817 20.03183 138.706591 -0.020559 -1.725279 -0.541689 -155.921361 -12.559344 173.3517 -28.144777 -39.986412 -27.160021 -23.84697 -41.256927 -25.414002 149.850713 22.601988 -154.914557 -78.106952 -30.438137 -125.615015 18.447202 -51.936684 -85.234982 3.707159 20.656395 -1.289474 178.927281 -16.453787 -89.421903 -178.221612 -18.256384 -99.299828 43.648397 38.804955 -34.058133 12.338002 25.047196 -5.658796 175.933265 -50.680269 -144.035488 13.7383 36.283946 -11.007173 -0.00063 0.022645 -0.00695 -11.190575 -15.763745 1.939157 6.260514 -14.051941 5.884892 21.16169 -39.045348 22.232856 -0.00473 -0.000537 -0.002365 -47.671355 -38.412606 119.506647 6.686518 -46.312146 -87.702668 -126.029806 -32.689947 150.574526 0.000516 -0.000168 -0.000663 -14.372274 -2.247522 180.0 3.335168 -25.543923 144.01327 -14.120184 -11.096895 30.520711
-93.4414 85.8162 -4.8798 158.61914 37.946776 167.842165 -18.055637 -0.235256 90.721619 -5.309389 -1.158781 -94.156028 -9.302179 30.25891 -50.700257 31.916202 -27.254429 -2.21131 0.003005 -0.0 -0.000175 -0.002642 -0.0 0.002881 -78.727987 68.389982 81.807959 -116.454266 23.204733 130.635704 114.26416 -16.120266 23.907952 -136.295973 55.1721 112.229277 -78.031217 38.688889 42.412312 -153.224484 -34.613099 82.897412 -83.733207 42.329716 69.989663 -10.59414 24.148966 2.267988 0.540251 -1.590043 -0.295449 144.662044 -74.671259 112.903481 -70.380238 -72.131084 -87.27939 12.155379 44.951195 2.49681 -75.779271 -51.667103 -74.249471 -24.0769 -40.9681 -26.069047 142.974078 39.431582 -147.389868 81.696544 1.654253 -64.14347 -14.574464 -20.10699 133.264734 -166.815331 -19.549591 -144.108637 0.442421 0.434909 -0.069818 -25.908413 -42.308155 16.434485 1.162344 1.861078 -0.667106 86.574008 47.207921 -67.66684 -173.122219 -66.297663 -137.612912 -174.584834 -56.630475 -137.941295 145.120831 0.226206 179.200358 76.150757 -77.982507 97.661838 -25.920625 79.094088 -10.825447 -1.120828 -0.702343 1.130827 179.996155 75.750142 0.002631 140.534439 22.081088 135.037245 48.052794 -31.648403 87.791217 83.011362 -48.674696 -178.960316 -179.992006 75.750142 -0.006577 134.385229 71.209425 47.18177 10.009922 30.547036 88.431966 -49.321001 -53.557826 -152.758477
-90.9347 85.73960000000001 -4.9483 159.249663 38.078073 167.927938 -13.78557 -0.732891 -92.646162 5.49395 -2.936847 88.600093 -9.9567 38.618459 -99.170604 48.416436 4.473541 36.72743 0.000427 0.0 0.002904 -0.001493 0.0 -0.002359 3.205883 -26.010367 -5.106075 -137.119835 -8.783587 -157.094424 104.672852 19.692845 -35.086821 -46.637895 53.824195 26.461559 -85.829066 38.631027 47.955706 -130.980663 -21.041124 79.316019 -166.823311 -43.973576 122.060827 -178.595099 -47.624897 112.62718 -36.036234 51.723001 29.832527 -163.835536 -7.021575 143.476883 -75.673368 -72.116632 -92.828772 -143.52566 62.582735 163.107755 -161.712289 70.564641 -151.018246 -129.051325 -28.33393 -125.787472 155.417441 -2.95145 -161.718451 -112.628072 -8.169406 -158.043014 -0.268935 -16.545794 -103.071455 7.723917 31.078739 -1.943058 174.391309 -12.052307 -89.860061 27.430184 -34.472391 -1.783333 166.821809 -43.973882 -122.061264 164.190859 -26.432938 -118.615263 -0.541206 -1.590077 0.293237 7.311291 26.196669 -6.024413 145.119654 0.184789 179.187976 -2.639793 -43.839387 17.908365 8.189622 -17.576438 7.728287 -2.832275 -0.001628 0.040228 -179.994085 75.748845 -0.004047 141.457609 24.971932 17.809766 24.152149 42.792986 68.079675 134.151794 52.618051 156.828395 179.998133 75.75043 0.001278 140.89214 72.173917 -52.397664 -34.510527 -5.927073 -35.085847 -25.13288 58.330485 110.669643
-88.4199 85.7086 -4.9653 159.664048 39.224024 167.755979 -14.209932 -1.352607 -91.950135 5.646208 -2.73088 87.187632 -4.394804 25.962349 -16.847821 2.697161 -35.723068 -42.595305 -0.003954 0.0 -0.001718 -0.001997 -0.0 0.0035 -0.04916 0.29232 0.065582 45.67171 9.568496 -11.871141 21.936613 79.693183 -129.215384 -169.882429 6.533655 140.975888 4.416589 -4.400764 -0.511748 20.850858 -39.291199 -18.420808 -140.163454 2.326292 115.878441 86.861579 -69.502621 36.509515 0.540287 -1.590124 -0.294447 -0.369429 10.168171 1.648635 -0.014224 -1.323174 -0.415745 -78.190547 78.781407 91.712575 -140.387942 -1.531606 -137.475699 -151.475362 24.571876 -144.321752 0.048815 0.292466 -0.064506 82.659377 -23.213989 161.63192 -172.287307 6.392395 74.760784 14.972578 46.562002 -5.229584 -176.505846 -20.695156 -88.628017 159.26836 2.980327 -88.738303 153.45476 -21.067623 -121.743711 162.752499 -19.478497 -119.573376 -34.589942 -70.943384 -9.317224 162.351624 -1.384933 -142.817573 132.481814 54.103427 -155.534537 -6.984883 29.789503 3.169062 26.563208 -38.861286 25.605485 84.635761 -53.579644 84.889492 -179.99444 75.750793 -0.005737 144.042482 24.569834 -119.821147 -51.758853 -28.372463 -47.397564 80.130524 -48.482292 175.895581 179.973626 75.748727 0.0217 143.461223 72.380984 -86.022326 -36.081481 -14.723226 -108.971616 81.715053 51.843188 -170.784106
